# Blender 3.1.2
# www.blender.org
mtllib link1.mtl
o link1
v 0.000000 0.002500 0.000000
v 0.040000 0.002310 -0.000957
v 0.000000 0.002310 -0.000957
v 0.040000 0.001768 -0.001768
v 0.000000 0.001768 -0.001768
v 0.040000 0.000957 -0.002310
v 0.000000 0.000957 -0.002310
v 0.040000 0.000000 -0.002500
v 0.000000 0.000000 -0.002500
v 0.040000 -0.000957 -0.002310
v 0.000000 -0.000957 -0.002310
v 0.040000 -0.001768 -0.001768
v 0.000000 -0.001768 -0.001768
v 0.040000 -0.002310 -0.000957
v 0.000000 -0.002310 -0.000957
v 0.040000 -0.002500 0.000000
v 0.000000 -0.002500 0.000000
v 0.040000 -0.002310 0.000957
v 0.000000 -0.002310 0.000957
v 0.040000 -0.001768 0.001768
v 0.000000 -0.001768 0.001768
v 0.040000 -0.000957 0.002310
v 0.000000 -0.000957 0.002310
v 0.040000 0.000000 0.002500
v 0.000000 0.000000 0.002500
v 0.040000 0.000957 0.002310
v 0.000000 0.000957 0.002310
v 0.040000 0.001768 0.001768
v 0.000000 0.001768 0.001768
v 0.040000 0.002310 0.000957
v 0.000000 0.002310 0.000957
v 0.040000 0.002500 0.000000
v 0.040000 0.000000 0.000000
v 0.000000 -0.002500 0.000000
v 0.000000 0.000000 0.000000
vn -0.0000 0.9808 -0.1951
vn -0.0000 0.8315 -0.5556
vn -0.0000 0.5556 -0.8315
vn -0.0000 0.1951 -0.9808
vn -0.0000 -0.1951 -0.9808
vn -0.0000 -0.5556 -0.8315
vn -0.0000 -0.8315 -0.5556
vn -0.0000 -0.9808 -0.1951
vn -0.0000 -0.9808 0.1951
vn -0.0000 -0.8315 0.5556
vn -0.0000 -0.5556 0.8315
vn -0.0000 -0.1951 0.9808
vn -0.0000 0.1951 0.9808
vn -0.0000 0.5556 0.8315
vn -0.0000 0.8315 0.5556
vn -0.0000 0.9808 0.1951
vn 1.0000 -0.0000 -0.0000
vn -1.0000 -0.0000 -0.0000
s 0
f 1//1 2//1 3//1
f 3//2 2//2 4//2
f 3//2 4//2 5//2
f 5//3 4//3 6//3
f 5//3 6//3 7//3
f 7//4 6//4 8//4
f 7//4 8//4 9//4
f 9//5 8//5 10//5
f 9//5 10//5 11//5
f 11//6 10//6 12//6
f 11//6 12//6 13//6
f 13//7 12//7 14//7
f 13//7 14//7 15//7
f 15//8 14//8 16//8
f 15//8 16//8 17//8
f 17//9 16//9 18//9
f 17//9 18//9 19//9
f 19//10 18//10 20//10
f 19//10 20//10 21//10
f 21//11 20//11 22//11
f 21//11 22//11 23//11
f 23//12 22//12 24//12
f 23//12 24//12 25//12
f 25//13 24//13 26//13
f 25//13 26//13 27//13
f 27//14 26//14 28//14
f 27//14 28//14 29//14
f 29//15 28//15 30//15
f 29//15 30//15 31//15
f 31//16 30//16 32//16
f 31//16 32//16 1//16
f 1//1 32//1 2//1
f 16//17 14//17 33//17
f 22//17 20//17 33//17
f 33//17 20//17 18//17
f 33//17 18//17 16//17
f 28//17 26//17 33//17
f 33//17 26//17 24//17
f 33//17 24//17 22//17
f 2//17 32//17 33//17
f 33//17 32//17 30//17
f 33//17 30//17 28//17
f 8//17 6//17 33//17
f 33//17 6//17 4//17
f 33//17 4//17 2//17
f 14//17 12//17 33//17
f 33//17 12//17 10//17
f 33//17 10//17 8//17
f 34//18 19//18 35//18
f 11//18 13//18 35//18
f 35//18 13//18 15//18
f 35//18 15//18 34//18
f 5//18 7//18 35//18
f 35//18 7//18 9//18
f 35//18 9//18 11//18
f 31//18 1//18 35//18
f 35//18 1//18 3//18
f 35//18 3//18 5//18
f 25//18 27//18 35//18
f 35//18 27//18 29//18
f 35//18 29//18 31//18
f 19//18 21//18 35//18
f 35//18 21//18 23//18
f 35//18 23//18 25//18
